<?xml version="1.0" encoding="UTF-8"?>
<svg id="Layer_1" data-name="Layer 1" xmlns="http://www.w3.org/2000/svg" viewBox="0 0 371.52 122.64">
  <defs>
    <style>
      .cls-1 {
        fill: #fdfdfd;
      }

      .cls-1, .cls-2, .cls-3 {
        stroke-width: 0px;
      }

      .cls-2 {
        fill: #383536;
      }

      .cls-3 {
        fill: #f9a832;
      }
    </style>
  </defs>
  <path class="cls-1" d="M335.06,122.64H0V0c123.84,0,247.68,0,371.52,0v113.54c-.52-1.53-1.65-2.31-3.18-2.67-1.16-.28-2.31-.62-3.44-.99-.58-.19-1.1-.54-1.08-1.27.02-.75.5-1.12,1.15-1.35,1.83-.65,3.26-.07,4.12,1.71.63.02,1.25-.02,1.81-.33-.18-1.49-.98-2.44-2.38-2.88-1.45-.46-2.9-.51-4.35-.01-1.45.5-2.3,1.6-2.33,3-.04,1.45.68,2.5,2.23,3.04,1.2.42,2.45.69,3.67,1.07.81.25,1.71.51,1.58,1.62-.12,1.07-.93,1.53-1.9,1.69-2.02.33-3-.25-4.12-2.41-.59.11-1.19.22-1.8.33.62,2.51,1.89,3.57,4.26,3.77,2.52.21,4.52-.55,5.76-2.87v7.67h-35.26c.17-.43.55-.2.83-.25,2.15-.36,3.69-1.66,3.93-3.63.53-4.32.12-8.67.25-13.01-.71-.13-1.28-.17-1.85,0-.03.37-.06.71-.11,1.2-.23-.18-.34-.27-.45-.36-2.64-2.14-6.18-1.29-7.54,1.82-.69,1.59-.82,3.25-.42,4.92.5,2.12,1.61,3.74,3.9,4.21,1.62.33,3.05-.13,4.31-1.3,0,.79.06,1.43-.01,2.06-.15,1.26-.98,2.21-2.19,2.38-1.26.18-2.78.43-3.47-.9-.6-1.15-1.38-.98-2.28-1.06.09,1.92.82,2.87,2.5,3.45.47.16,1.03.04,1.4.48ZM.38,94.29h370.63v-5.4H.38v5.4ZM102.84,22.52v55.22c.3.02.54.05.77.05,14.23,0,28.46.02,42.69-.01,1.88,0,3.73-.3,5.46-1.13,3.85-1.84,6.6-6.16,6.18-9.95h-43.99v-11.07h44.05v-11.04h-44.08v-11.06h44.11c.1-1.06-.1-1.96-.35-2.84-1.43-5.1-5.78-8.17-11.59-8.17-14.03,0-28.06,0-42.09,0-.36,0-.72,0-1.16,0ZM213.51,33.57h44.04v11.06h-44.08v11.07h44.06v11.07h-44.06c0,.5-.05.9.01,1.28.09.59.21,1.18.38,1.75,1.49,5.01,5.81,7.99,11.61,7.99,14.03.01,28.05,0,42.08,0,.35,0,.72.11,1.08-.16V22.52h-1.34c-13.79,0-27.57,0-41.36,0-1.12,0-2.24.08-3.34.24-5.13.74-9.42,5.79-9.08,10.82ZM223.02.5h-74.46c5.43,1.24,9.08,4.75,9.65,11.01h12.77v11.06h9.18c0,.55,0,.98,0,1.41v14.61c0,12.53,0,25.07,0,37.6q0,1.58,1.64,1.59c2.68,0,5.36,0,8.03,0,.43,0,.88.12,1.42-.25V22.48h9.3v-10.99h12.73c.59-5.99,3.72-9.61,9.72-10.99ZM279.83,77.8h1.36c13.39,0,26.77,0,40.16,0,1.16,0,2.31-.05,3.46-.14,5.89-.46,10.23-5.12,10.26-11.05.02-3.63,0-7.26,0-10.89,0-1.01-.14-1.98-.41-2.95-1.45-5.09-5.77-8.15-11.6-8.15-14.07-.01-28.13,0-42.2,0-.34,0-.72-.13-1.02.16v10.9h44.08v11.09h-44.1v11.03ZM91.64,44.61c-.59,0-1.02,0-1.45,0-13.51,0-27.01,0-40.52,0-.96,0-1.91.05-2.87.12-6.11.5-10.35,5.06-10.38,11.16-.02,3.55,0,7.1,0,10.65,0,1.08.12,2.14.42,3.19,1.48,5.01,5.8,8.04,11.57,8.05,14.07.01,28.13,0,42.2,0,.34,0,.72.13,1-.15v-10.94h-44.06v-11.07h44.1v-11.02ZM15.6,48.75h-5.56v9.73H.39v5.51h9.73v9.65h5.47v-9.69h9.69v-5.55h-9.68v-9.66ZM346.19,58.49v5.4h24.82v-5.4h-24.82ZM101.92,110.02h8.99c.09-.67.12-1.25-.05-1.95h-8.91v-5.06h9.54v-1.85h-11.78v16.37h12.27c-.03-.66.12-1.25-.14-1.9h-9.92v-5.62ZM14.59,105.63c-.54-1.99-1.61-3.32-3.25-4.12-4.18-2.01-9.34.26-10.57,4.72-.69,2.49-.54,4.98.45,7.38.95,2.32,2.66,3.71,5.15,4.16,4.24.77,7.79-1.45,8.48-5.4-.67-.17-1.35-.35-2.03-.52-.1.27-.18.45-.24.63-.86,2.45-2.39,3.58-4.79,3.52-2.41-.06-4.08-1.36-4.76-3.79-.59-2.09-.55-4.18.16-6.24.69-1.99,2.39-3.17,4.57-3.25,2.38-.08,3.59.68,4.58,2.87.08.17.17.34.27.54.71-.18,1.36-.35,2-.51ZM284.69,117.58c0-2.76.02-5.43,0-8.09-.01-1.5-.37-2.88-1.88-3.59-1.63-.76-3.24-.69-4.79.27-.31.19-.52.59-1.06.59v-5.59h-1.91v16.4h1.98c0-1.61-.02-3.16,0-4.71.02-1.15-.14-2.31.18-3.45.41-1.46,1.74-2.38,3.25-2.23,1.42.14,2.1.92,2.2,2.63.06,1.11.03,2.23.03,3.35,0,1.47,0,2.94,0,4.44h2.02ZM59.87,112.16c-.07-.92-.07-1.64-.2-2.33-.47-2.58-2.41-4.3-4.92-4.42-2.78-.14-4.9,1.37-5.62,4.01-.4,1.49-.41,2.99-.03,4.49.55,2.14,1.94,3.45,4.1,3.85,2.92.55,5.95-.68,6.42-3.68-1.1-.34-2.08-.57-2.66.92-.3.78-1.19,1.12-2.09,1.19-2.31.18-3.86-1.4-3.86-4.03h8.85ZM208.51,112.14c-.04-.78-.03-1.38-.1-1.96-.34-2.66-2.22-4.53-4.75-4.76-2.64-.24-4.95,1.15-5.74,3.55-.54,1.66-.59,3.37-.11,5.06.6,2.14,2.04,3.39,4.2,3.75,2.67.45,5.78-.56,6.29-3.76-.63-.09-1.25-.18-1.85-.26-1.28,2.17-2.47,2.82-4.22,2.33-1.58-.44-2.53-1.87-2.56-3.95h8.85ZM359.76,112.13c0-.54.02-.89,0-1.25-.15-3.09-2.14-5.29-4.95-5.47-3.12-.21-5.35,1.63-5.91,4.84-.2,1.12-.16,2.22.07,3.32.45,2.24,1.97,3.75,4.2,4.2,3.17.63,5.94-.96,6.4-3.72-.62-.11-1.23-.31-1.87-.24-1.29,2.15-2.45,2.77-4.2,2.27-1.6-.45-2.6-1.98-2.52-3.95h8.79ZM27.63,112.15c.22-.71.08-1.25,0-1.8-.41-3.03-2.37-4.9-5.18-4.96-2.93-.06-5.06,1.71-5.6,4.67-.19,1.03-.18,2.07-.03,3.1.61,4.08,5.29,6.14,8.75,3.86,1.06-.7,1.74-1.67,2.04-3.08-.84.25-1.66-.8-2.31.36-.96,1.7-2.33,2.27-3.98,1.73-1.58-.51-2.49-1.97-2.37-3.89h8.66ZM258.88,113.75c-1.31,2.24-2.58,2.88-4.38,2.28-1.58-.53-2.53-2.09-2.3-3.93h8.71c.1-1.11-.03-2.09-.34-3.04-.63-1.95-1.95-3.19-3.97-3.56-2.06-.38-3.9.13-5.3,1.77-1.56,1.83-1.88,5.54-.64,7.83,1.22,2.26,3.26,2.9,5.67,2.73,2.33-.16,4.12-1.72,4.37-3.81-.59-.09-1.17-.18-1.82-.28ZM148.13,112.14c.15-.96,0-1.7-.15-2.44-.5-2.5-2.43-4.18-4.91-4.3-2.72-.12-4.91,1.39-5.6,3.92-.39,1.44-.43,2.91-.08,4.38.52,2.2,1.86,3.59,4.08,4.03,3.35.66,6.08-.98,6.51-3.62-1.8-.47-1.8-.47-2.19.18-1.04,1.71-2.33,2.28-3.98,1.77-1.57-.49-2.49-1.94-2.43-3.92h8.75ZM171.23,112.14c0-.66.05-1.17,0-1.68-.3-2.91-2.27-4.9-4.98-5.06-2.84-.16-5.11,1.49-5.74,4.2-.32,1.38-.33,2.77-.01,4.15.58,2.56,2.63,4.1,5.43,4.11,2.78.01,4.59-1.31,5.19-3.79-.66-.12-1.3-.35-1.97-.24-1.16,2.1-2.45,2.77-4.22,2.23-1.62-.49-2.62-2.11-2.4-3.92h8.7ZM311.1,111.6c0-2.93-1.13-4.9-3.36-5.79-2.94-1.17-6.22.09-7.33,2.82-1.42,3.5-.15,7.57,2.75,8.78.15.06.29.13.44.17,4.13,1.3,7.49-1.38,7.5-5.99ZM74.32,110.74c-.01,3.25.59,5.36,2.87,6.49,2.12,1.06,4.3.93,6.21-.51,2.33-1.75,2.32-4.32,1.95-6.86-.3-2.1-1.57-3.52-3.6-4.22-.04-.01-.08-.02-.12-.03-4.1-1.16-7.32,1.48-7.32,5.11ZM329.08,111.68c.02-3.05-1.19-5.08-3.5-5.93-2.92-1.07-6.14.23-7.21,2.92-1.38,3.47-.14,7.49,2.69,8.72.18.08.37.16.56.21,4.12,1.26,7.44-1.38,7.47-5.92ZM223.23,117.57c0-2.07,0-4.09,0-6.12,0-.83-.02-1.67.29-2.48.49-1.27,1.88-2.02,3.3-1.77,1.34.23,1.95.98,2,2.54.03,1,.02,1.99.02,2.99,0,1.62,0,3.23,0,4.87.79,0,1.42.12,2.06-.09,0-2.74.07-5.4-.02-8.07-.1-3.11-2.39-4.67-5.43-3.87-.94.25-1.6.89-2.4,1.47-.03-.5-.06-.89-.09-1.33-.62-.07-1.19-.13-1.72.03v11.84h1.98ZM297.56,117.57c-.07-3.14.2-6.25-.17-9.34-.16-1.35-1.06-2.21-2.36-2.59-2-.59-3.77-.19-5.3,1.48-.05-.58-.09-1-.13-1.42h-1.72v11.83h1.98c0-2.11,0-4.15,0-6.18,0-.84,0-1.68.33-2.47.5-1.2,1.87-1.91,3.25-1.69,1.33.22,1.97.99,2.03,2.53.03.68.01,1.36.02,2.04,0,1.94,0,3.88,0,5.82h2.06ZM30.32,105.68v11.88h1.96c0-.48,0-.92,0-1.35.02-2.04.03-4.07.07-6.11.02-.82.25-1.59.9-2.14.96-.82,2.07-1.04,3.25-.6,1.15.43,1.41,1.43,1.41,2.53,0,2.54,0,5.09,0,7.65h2.08c-.08-3.01.14-5.96-.13-8.9-.16-1.73-1.01-2.63-2.71-3.07-1.93-.51-3.58.03-4.96,1.46-.24-.5.06-.99-.3-1.36h-1.58ZM245.72,117.58v-14.58h5.36v-1.85h-13c.03.64-.12,1.22.12,1.91h5.33v14.52h2.19ZM183.49,117.57c0-2.76.02-5.39,0-8.03-.03-3.11-2.26-4.75-5.32-4.01-.99.24-1.71.9-2.52,1.53-.05-.54-.08-.96-.12-1.38h-1.68v11.87h1.97c0-2.02,0-3.97,0-5.92,0-.84,0-1.68.25-2.49.41-1.3,1.76-2.14,3.19-1.98,1.36.15,2.05.85,2.16,2.4.1,1.31.06,2.63.07,3.95.01,1.34,0,2.68,0,4.06h2ZM124.45,117.47c-1.06-1.53-2.1-3.03-3.15-4.52q-1.07-1.53.04-3.1c.95-1.35,1.9-2.71,2.86-4.07-1.68-.49-2.77,0-3.53,1.45-.46.87-1.12,1.63-1.74,2.51-.68-1.03-1.3-1.94-1.91-2.86-.93-1.39-1.4-1.55-3.17-1.02,1.31,1.87,2.6,3.72,3.88,5.56-1.45,2.07-2.85,4.07-4.25,6.06,1.72.49,2.79-.06,3.55-1.5.53-1.01,1.29-1.89,2.01-2.91.67,1,1.35,1.84,1.85,2.79.76,1.43,1.74,2.23,3.56,1.61ZM134.19,113.24c-.12.37-.2.63-.29.89-.48,1.35-1.33,2.01-2.62,2.06-1.42.05-2.55-.58-3.04-1.87-.67-1.77-.69-3.6.02-5.37.51-1.27,1.56-1.87,2.93-1.88,1.34-.01,2.15.71,2.61,1.9.07.18.07.4.48.47.42-.08.99-.19,1.57-.3-.48-2.29-1.91-3.55-4.14-3.74-2.51-.21-4.61.94-5.44,3.05-.76,1.92-.82,3.89-.19,5.86,1.01,3.15,4.75,4.57,7.62,2.9,1.38-.81,2.15-2.02,2.33-3.69-.65-.1-1.2-.19-1.84-.29ZM271.36,113.26c-.09.25-.16.43-.22.61-.57,1.7-1.45,2.37-3.03,2.32-1.48-.05-2.55-.91-2.94-2.5-.34-1.37-.36-2.77.03-4.14.49-1.74,1.92-2.69,3.6-2.46,1.37.19,1.96,1.21,2.38,2.41.65-.12,1.23-.23,1.81-.33-.32-2.04-1.57-3.3-3.6-3.68-2.29-.43-4.74.54-5.67,2.42-1.18,2.38-1.24,4.86-.11,7.27.97,2.08,3.39,3.1,5.79,2.61,2.12-.43,3.6-2.1,3.74-4.27-.57-.08-1.15-.17-1.75-.26ZM196.18,109.15c-.45-2.22-1.82-3.49-3.98-3.73-2.51-.28-4.74.89-5.58,3-.8,2-.82,4.06-.15,6.08.77,2.32,2.94,3.56,5.59,3.34,2.29-.19,3.9-1.78,4.3-4.29-.61-.12-1.2-.33-1.87-.2-.07.21-.13.39-.18.58-.48,1.54-1.37,2.25-2.83,2.26-1.52.01-2.65-.81-3.08-2.33-.42-1.48-.44-2.99.02-4.48.49-1.56,1.77-2.42,3.35-2.32,1.5.1,2.16,1.15,2.6,2.42.67-.13,1.25-.24,1.82-.35ZM93.59,101.15c-3.53-1.08-4.78-.01-5.3,4.44-.53.04-1.07.07-1.62.11-.11.52-.13.98,0,1.43.52.29,1.13-.07,1.72.32v10.11h2.06v-10.24c.81-.21,1.55.1,2.23-.23.06-.49.18-.96-.15-1.49h-2.06c-.2-2.65-.06-2.79,2.79-2.91.1-.48.2-.97.33-1.55ZM41.98,107.19c.52.04.94.06,1.44.1,0,.49,0,.92,0,1.36,0,2.19-.03,4.38.03,6.57.05,1.76.86,2.51,2.62,2.57.55.02,1.1-.02,1.62-.26.04-.58-.08-1.11-.29-1.64-.81-.04-1.87.26-1.89-1.03-.05-2.5-.01-5-.01-7.47.67-.32,1.35.04,1.94-.28.05-.47.13-.93-.04-1.38-.63-.23-1.3.1-2.01-.28v-4.01c-.71.74-1.84.66-1.95,1.69-.09.81-.02,1.65-.02,2.47-.56.04-.99.08-1.44.11v1.49ZM157.75,117.57v-16.4h-1.91v16.4h1.91ZM150.7,101.15v16.38h1.92v-16.38h-1.92ZM64.32,117.59c0-.52,0-.95,0-1.38.03-1.95-.07-3.91.12-5.85.25-2.61,1.09-3.13,3.66-2.61.3-.54.54-1.1.65-1.74-1.85-1.07-3.35-.78-4.55,1.29-.07-.77-.11-1.18-.15-1.63-.6,0-1.15-.13-1.64.07v11.85h1.91ZM313.53,101.13v16.47c.68,0,1.3.12,1.85-.08v-16.39h-1.85ZM346.27,117.57v-11.89c-.66-.03-1.25-.11-1.87.06v11.83h1.87ZM217.98,117.57v-11.86h-1.86v11.86h1.86ZM344.38,101.12c-.05.82-.16,1.55.07,2.25h1.86c.02-.79.13-1.52-.08-2.25h-1.85ZM216.13,101.13v2.25h1.87c.08-.78.13-1.51-.04-2.25h-1.82Z"/>
  <path class="cls-2" d="M335.06,122.64c-.37-.44-.94-.32-1.4-.48-1.69-.58-2.42-1.54-2.5-3.45.9.08,1.69-.1,2.28,1.06.69,1.33,2.2,1.08,3.47.9,1.21-.17,2.03-1.11,2.19-2.38.08-.63.01-1.27.01-2.06-1.26,1.17-2.69,1.64-4.31,1.3-2.29-.47-3.41-2.09-3.9-4.21-.39-1.67-.27-3.33.42-4.92,1.36-3.11,4.9-3.96,7.54-1.82.11.09.22.18.45.36.04-.49.07-.83.11-1.2.57-.17,1.15-.13,1.85,0-.13,4.35.28,8.69-.25,13.01-.24,1.97-1.77,3.27-3.93,3.63-.28.05-.66-.17-.83.25h-1.2ZM339.36,111.55c0-.8-.1-1.59-.4-2.33-.54-1.35-1.69-2.17-3.01-2.14-1.27.03-2.37.85-2.83,2.19-.54,1.56-.49,3.14.06,4.68.45,1.25,1.57,1.98,2.85,1.99,1.28,0,2.37-.71,2.89-1.93.33-.78.43-1.61.44-2.45Z"/>
  <path class="cls-2" d="M371.52,114.97c-1.24,2.33-3.24,3.09-5.76,2.87-2.37-.2-3.64-1.27-4.26-3.77.61-.11,1.22-.23,1.8-.33,1.12,2.17,2.1,2.74,4.12,2.41.97-.16,1.78-.62,1.9-1.69.13-1.11-.77-1.37-1.58-1.62-1.22-.37-2.47-.65-3.67-1.07-1.54-.53-2.26-1.59-2.23-3.04.04-1.4.88-2.5,2.33-3,1.45-.5,2.9-.45,4.35.01,1.39.45,2.2,1.39,2.38,2.88-.57.31-1.19.35-1.81.33-.86-1.78-2.29-2.36-4.12-1.71-.65.23-1.13.6-1.15,1.35-.02.73.5,1.08,1.08,1.27,1.14.37,2.28.71,3.44.99,1.52.37,2.66,1.14,3.18,2.67v1.44Z"/>
  <path class="cls-3" d="M.38,94.29v-5.4h370.63v5.4H.38Z"/>
  <path class="cls-2" d="M102.84,22.52c.45,0,.81,0,1.16,0,14.03,0,28.06,0,42.09,0,5.81,0,10.15,3.08,11.59,8.17.25.88.45,1.78.35,2.84h-44.11v11.06h44.08v11.04h-44.05v11.07h43.99c.42,3.79-2.33,8.11-6.18,9.95-1.74.83-3.59,1.12-5.46,1.13-14.23.03-28.46.02-42.69.01-.23,0-.47-.03-.77-.05V22.52Z"/>
  <path class="cls-2" d="M213.51,33.57c-.34-5.03,3.94-10.07,9.08-10.82,1.11-.16,2.22-.24,3.34-.24,13.79,0,27.57,0,41.36,0h1.34v55.11c-.36.27-.74.16-1.08.16-14.03,0-28.05.01-42.08,0-5.8,0-10.11-2.99-11.61-7.99-.17-.57-.29-1.16-.38-1.75-.06-.38-.01-.78-.01-1.28h44.06v-11.07h-44.06v-11.07h44.08v-11.06h-44.04Z"/>
  <path class="cls-3" d="M223.02.5c-6,1.38-9.13,5-9.72,10.99h-12.73v10.99h-9.3v55.04c-.54.37-1,.25-1.42.25-2.68.01-5.36,0-8.03,0q-1.64,0-1.64-1.59c0-12.53,0-25.07,0-37.6v-14.61c0-.43,0-.87,0-1.41h-9.18v-11.06h-12.77c-.58-6.26-4.22-9.77-9.65-11.01h74.46Z"/>
  <path class="cls-2" d="M279.83,77.8v-11.03h44.1v-11.09h-44.08v-10.9c.3-.29.68-.16,1.02-.16,14.07,0,28.13-.02,42.2,0,5.83,0,10.15,3.07,11.6,8.15.28.97.42,1.94.41,2.95,0,3.63.01,7.26,0,10.89-.03,5.92-4.37,10.59-10.26,11.05-1.15.09-2.31.14-3.46.14-13.39,0-26.77,0-40.16,0h-1.36Z"/>
  <path class="cls-2" d="M91.64,44.61v11.02h-44.1v11.07h44.06v10.94c-.28.28-.66.15-1,.15-14.07,0-28.13.02-42.2,0-5.77,0-10.09-3.04-11.57-8.05-.31-1.04-.43-2.1-.42-3.19,0-3.55-.01-7.1,0-10.65.03-6.1,4.27-10.66,10.38-11.16.95-.08,1.91-.12,2.87-.12,13.51,0,27.01,0,40.52,0,.43,0,.87,0,1.45,0Z"/>
  <path class="cls-3" d="M15.6,48.75v9.66h9.68v5.55h-9.69v9.69h-5.47v-9.65H.39v-5.51h9.65v-9.73h5.56Z"/>
  <path class="cls-3" d="M346.19,58.49h24.82v5.4h-24.82v-5.4Z"/>
  <path class="cls-2" d="M101.92,110.02v5.62h9.92c.27.65.11,1.24.14,1.9h-12.27v-16.37h11.78v1.85h-9.54v5.06h8.91c.17.71.14,1.28.05,1.95h-8.99Z"/>
  <path class="cls-2" d="M14.59,105.63c-.65.17-1.29.33-2,.51-.1-.2-.19-.36-.27-.54-.99-2.2-2.2-2.96-4.58-2.87-2.17.07-3.88,1.26-4.57,3.25-.71,2.05-.75,4.15-.16,6.24.69,2.42,2.36,3.73,4.76,3.79,2.4.06,3.94-1.07,4.79-3.52.06-.18.14-.36.24-.63.68.17,1.36.35,2.03.52-.69,3.95-4.24,6.18-8.48,5.4-2.48-.45-4.19-1.85-5.15-4.16-.99-2.4-1.14-4.89-.45-7.38,1.23-4.45,6.39-6.73,10.57-4.72,1.64.79,2.72,2.13,3.25,4.12Z"/>
  <path class="cls-2" d="M284.69,117.58h-2.02c0-1.51,0-2.97,0-4.44,0-1.12.03-2.23-.03-3.35-.09-1.71-.77-2.48-2.2-2.63-1.51-.15-2.84.77-3.25,2.23-.32,1.14-.16,2.3-.18,3.45-.03,1.55,0,3.1,0,4.71h-1.98v-16.4h1.91v5.59c.54,0,.75-.4,1.06-.59,1.55-.96,3.17-1.03,4.79-.27,1.51.71,1.87,2.09,1.88,3.59.02,2.66,0,5.33,0,8.09Z"/>
  <path class="cls-2" d="M59.87,112.16h-8.85c0,2.63,1.56,4.2,3.86,4.03.89-.07,1.79-.4,2.09-1.19.57-1.49,1.55-1.26,2.66-.92-.47,2.99-3.5,4.23-6.42,3.68-2.16-.41-3.55-1.71-4.1-3.85-.38-1.49-.38-3,.03-4.49.72-2.64,2.84-4.15,5.62-4.01,2.51.12,4.45,1.84,4.92,4.42.13.7.13,1.42.2,2.33ZM57.58,110.43c-.11-2.22-1.46-3.49-3.44-3.36-1.76.11-3.05,1.56-2.95,3.36h6.39Z"/>
  <path class="cls-2" d="M208.51,112.14h-8.85c.03,2.07.98,3.51,2.56,3.95,1.75.49,2.94-.16,4.22-2.33.6.09,1.22.17,1.85.26-.5,3.2-3.62,4.21-6.29,3.76-2.15-.36-3.6-1.61-4.2-3.75-.48-1.7-.43-3.4.11-5.06.79-2.4,3.1-3.79,5.74-3.55,2.53.23,4.41,2.11,4.75,4.76.08.59.06,1.19.1,1.96ZM199.79,110.4h6.47c-.09-2.04-1.26-3.28-3.07-3.33-1.91-.05-3.24,1.22-3.4,3.33Z"/>
  <path class="cls-2" d="M359.76,112.13h-8.79c-.08,1.98.92,3.5,2.52,3.95,1.75.49,2.91-.13,4.2-2.27.64-.07,1.25.13,1.87.24-.46,2.75-3.22,4.35-6.4,3.72-2.24-.45-3.75-1.96-4.2-4.2-.22-1.1-.26-2.2-.07-3.32.56-3.21,2.79-5.05,5.91-4.84,2.81.19,4.8,2.38,4.95,5.47.02.36,0,.72,0,1.25ZM357.53,110.42c-.05-2.12-1.37-3.43-3.33-3.35-1.83.07-3.12,1.47-3.06,3.35h6.4Z"/>
  <path class="cls-2" d="M27.63,112.15h-8.66c-.12,1.92.78,3.38,2.37,3.89,1.65.53,3.02-.03,3.98-1.73.65-1.15,1.47-.1,2.31-.36-.3,1.41-.98,2.38-2.04,3.08-3.46,2.29-8.14.23-8.75-3.86-.15-1.03-.16-2.08.03-3.1.54-2.97,2.67-4.73,5.6-4.67,2.81.06,4.77,1.93,5.18,4.96.07.54.21,1.09,0,1.8ZM19,110.4h6.48c-.12-2.1-1.31-3.32-3.16-3.33-1.87,0-3.16,1.27-3.32,3.33Z"/>
  <path class="cls-2" d="M258.88,113.75c.64.1,1.23.19,1.82.28-.24,2.09-2.04,3.65-4.37,3.81-2.41.17-4.45-.47-5.67-2.73-1.23-2.29-.92-6.01.64-7.83,1.4-1.64,3.24-2.15,5.3-1.77,2.02.37,3.34,1.61,3.97,3.56.31.95.44,1.93.34,3.04h-8.71c-.23,1.84.72,3.39,2.3,3.93,1.79.6,3.07-.04,4.38-2.28ZM258.74,110.43c-.28-2.27-1.46-3.41-3.36-3.36-1.81.06-3.04,1.34-3.16,3.36h6.52Z"/>
  <path class="cls-2" d="M148.13,112.14h-8.75c-.07,1.98.86,3.43,2.43,3.92,1.65.51,2.94-.06,3.98-1.77.39-.64.4-.64,2.19-.18-.43,2.64-3.16,4.29-6.51,3.62-2.22-.44-3.56-1.83-4.08-4.03-.35-1.47-.31-2.94.08-4.38.68-2.53,2.88-4.04,5.6-3.92,2.48.11,4.41,1.79,4.91,4.3.15.74.29,1.49.15,2.44ZM145.98,110.41c-.27-2.24-1.43-3.39-3.33-3.34-1.81.05-3.03,1.31-3.2,3.34h6.53Z"/>
  <path class="cls-2" d="M171.23,112.14h-8.7c-.22,1.81.79,3.43,2.4,3.92,1.77.54,3.06-.14,4.22-2.23.67-.11,1.31.12,1.97.24-.6,2.48-2.42,3.8-5.19,3.79-2.81-.01-4.85-1.55-5.43-4.11-.32-1.38-.31-2.77.01-4.15.63-2.71,2.9-4.36,5.74-4.2,2.71.16,4.68,2.14,4.98,5.06.05.51,0,1.02,0,1.68ZM162.56,110.41h6.49c-.14-2.11-1.34-3.34-3.2-3.34-1.85,0-3.11,1.23-3.29,3.34Z"/>
  <path class="cls-2" d="M311.1,111.6c-.01,4.61-3.36,7.3-7.5,5.99-.15-.05-.3-.11-.44-.17-2.89-1.21-4.17-5.29-2.75-8.78,1.11-2.73,4.4-4,7.33-2.82,2.22.89,3.36,2.85,3.36,5.79ZM301.93,111.54c.01.65.11,1.28.26,1.9.42,1.71,1.64,2.74,3.28,2.75,1.65.02,2.9-.96,3.34-2.68.28-1.09.28-2.21.1-3.32-.29-1.8-1.6-3.04-3.25-3.11-1.75-.07-3.08,1.03-3.5,2.93-.11.5-.16,1.02-.23,1.53Z"/>
  <path class="cls-2" d="M74.32,110.74c0-3.63,3.22-6.27,7.32-5.11.04.01.08.01.12.03,2.03.7,3.3,2.12,3.6,4.22.37,2.54.38,5.1-1.95,6.86-1.91,1.44-4.09,1.56-6.21.51-2.28-1.14-2.88-3.25-2.87-6.49ZM83.45,111.42c.02-.56-.1-1.3-.36-2.02-.53-1.47-1.79-2.35-3.27-2.32-1.45.03-2.62.89-3.1,2.36-.5,1.52-.48,3.06.05,4.57.49,1.38,1.68,2.17,3.11,2.18,1.46.01,2.58-.74,3.14-2.12.32-.78.43-1.61.44-2.65Z"/>
  <path class="cls-2" d="M329.08,111.68c-.03,4.54-3.35,7.18-7.47,5.92-.19-.06-.37-.13-.56-.21-2.83-1.24-4.06-5.25-2.69-8.72,1.07-2.69,4.29-3.99,7.21-2.92,2.32.85,3.52,2.89,3.5,5.93ZM327.01,111.47c-.08-.59-.05-1.27-.28-1.92-.55-1.56-1.76-2.48-3.29-2.46-1.57.02-2.81,1.04-3.25,2.66-.35,1.3-.34,2.6.02,3.89.44,1.57,1.66,2.53,3.19,2.56,1.59.03,2.76-.84,3.3-2.41.25-.73.25-1.48.3-2.31Z"/>
  <path class="cls-2" d="M223.23,117.57h-1.98v-11.84c.53-.16,1.1-.1,1.72-.03.03.44.05.83.09,1.33.79-.57,1.46-1.22,2.4-1.47,3.04-.8,5.33.76,5.43,3.87.08,2.66.02,5.33.02,8.07-.64.21-1.27.09-2.06.09,0-1.63,0-3.25,0-4.87,0-1,.01-1.99-.02-2.99-.05-1.55-.66-2.31-2-2.54-1.42-.24-2.81.51-3.3,1.77-.31.8-.28,1.64-.29,2.48-.01,2.02,0,4.05,0,6.12Z"/>
  <path class="cls-2" d="M297.56,117.57h-2.06c0-1.94,0-3.88,0-5.82,0-.68.01-1.36-.02-2.04-.06-1.54-.7-2.31-2.03-2.53-1.38-.23-2.75.49-3.25,1.69-.33.79-.33,1.64-.33,2.47-.01,2.03,0,4.06,0,6.18h-1.98v-11.83h1.72c.04.43.07.84.13,1.42,1.53-1.67,3.3-2.07,5.3-1.48,1.3.38,2.2,1.24,2.36,2.59.37,3.09.1,6.2.17,9.34Z"/>
  <path class="cls-2" d="M30.32,105.68h1.58c.36.37.06.86.3,1.36,1.38-1.43,3.03-1.97,4.96-1.46,1.7.45,2.55,1.35,2.71,3.07.27,2.94.04,5.89.13,8.9h-2.08c0-2.57,0-5.11,0-7.65,0-1.11-.26-2.1-1.41-2.53-1.17-.44-2.29-.22-3.25.6-.65.56-.88,1.33-.9,2.14-.04,2.03-.05,4.07-.07,6.11,0,.43,0,.86,0,1.35h-1.96v-11.88Z"/>
  <path class="cls-2" d="M245.72,117.58h-2.19v-14.52h-5.33c-.24-.69-.09-1.27-.12-1.91h13v1.85h-5.36v14.58Z"/>
  <path class="cls-2" d="M183.49,117.57h-2c0-1.38,0-2.72,0-4.06,0-1.32.02-2.64-.07-3.95-.11-1.55-.8-2.24-2.16-2.4-1.43-.16-2.78.68-3.19,1.98-.25.81-.26,1.65-.25,2.49,0,1.95,0,3.9,0,5.92h-1.97v-11.87h1.68c.04.42.07.84.12,1.38.82-.62,1.53-1.28,2.52-1.53,3.06-.74,5.29.9,5.32,4.01.03,2.63,0,5.26,0,8.03Z"/>
  <path class="cls-2" d="M124.45,117.47c-1.82.62-2.81-.18-3.56-1.61-.5-.94-1.18-1.79-1.85-2.79-.71,1.02-1.47,1.9-2.01,2.91-.76,1.45-1.83,1.99-3.55,1.5,1.4-2,2.8-3.99,4.25-6.06-1.28-1.84-2.58-3.69-3.88-5.56,1.77-.53,2.24-.38,3.17,1.02.61.92,1.22,1.83,1.91,2.86.62-.88,1.29-1.64,1.74-2.51.76-1.45,1.86-1.94,3.53-1.45-.96,1.37-1.91,2.72-2.86,4.07q-1.11,1.57-.04,3.1c1.04,1.49,2.08,2.99,3.15,4.52Z"/>
  <path class="cls-2" d="M134.19,113.24c.65.1,1.19.19,1.84.29-.18,1.66-.95,2.88-2.33,3.69-2.86,1.67-6.61.25-7.62-2.9-.63-1.97-.57-3.94.19-5.86.83-2.1,2.94-3.25,5.44-3.05,2.23.18,3.66,1.45,4.14,3.74-.57.11-1.15.22-1.57.3-.42-.07-.41-.29-.48-.47-.46-1.19-1.27-1.91-2.61-1.9-1.37.01-2.42.61-2.93,1.88-.71,1.77-.69,3.59-.02,5.37.49,1.3,1.61,1.93,3.04,1.87,1.3-.05,2.14-.71,2.62-2.06.09-.26.17-.52.29-.89Z"/>
  <path class="cls-2" d="M271.36,113.26c.6.09,1.18.17,1.75.26-.14,2.17-1.62,3.84-3.74,4.27-2.4.49-4.81-.53-5.79-2.61-1.13-2.41-1.07-4.89.11-7.27.93-1.88,3.38-2.85,5.67-2.42,2.03.38,3.28,1.64,3.6,3.68-.58.11-1.16.21-1.81.33-.42-1.2-1.01-2.21-2.38-2.41-1.68-.23-3.11.72-3.6,2.46-.38,1.37-.37,2.77-.03,4.14.39,1.59,1.46,2.46,2.94,2.5,1.58.05,2.46-.63,3.03-2.32.06-.18.13-.36.22-.61Z"/>
  <path class="cls-2" d="M196.18,109.15c-.58.11-1.15.22-1.82.35-.44-1.27-1.1-2.32-2.6-2.42-1.58-.11-2.86.75-3.35,2.32-.46,1.48-.45,2.99-.02,4.48.43,1.52,1.56,2.34,3.08,2.33,1.46-.01,2.35-.73,2.83-2.26.06-.19.12-.37.18-.58.67-.13,1.27.09,1.87.2-.4,2.52-2.01,4.1-4.3,4.29-2.65.22-4.82-1.02-5.59-3.34-.67-2.02-.64-4.09.15-6.08.84-2.11,3.07-3.27,5.58-3,2.16.24,3.54,1.51,3.98,3.73Z"/>
  <path class="cls-2" d="M93.59,101.15c-.12.57-.22,1.07-.33,1.55-2.85.12-2.98.26-2.79,2.91h2.06c.32.53.2,1,.15,1.49-.68.33-1.42.02-2.23.23v10.24h-2.06v-10.11c-.59-.4-1.2-.04-1.72-.32-.14-.45-.12-.91,0-1.43.55-.04,1.09-.07,1.62-.11.52-4.45,1.77-5.52,5.3-4.44Z"/>
  <path class="cls-2" d="M41.98,107.19v-1.49c.46-.04.88-.07,1.44-.11,0-.82-.07-1.65.02-2.47.12-1.03,1.24-.96,1.95-1.69v4.01c.71.38,1.37.05,2.01.28.18.45.09.91.04,1.38-.59.32-1.27-.04-1.94.28,0,2.48-.03,4.97.01,7.47.02,1.29,1.08.99,1.89,1.03.21.53.33,1.05.29,1.64-.52.25-1.07.28-1.62.26-1.76-.07-2.57-.81-2.62-2.57-.06-2.19-.03-4.38-.03-6.57,0-.43,0-.87,0-1.36-.5-.03-.92-.06-1.44-.1Z"/>
  <path class="cls-2" d="M157.75,117.57h-1.91v-16.4h1.91v16.4Z"/>
  <path class="cls-2" d="M150.7,101.15h1.92v16.38h-1.92v-16.38Z"/>
  <path class="cls-2" d="M64.32,117.59h-1.91v-11.85c.49-.2,1.04-.07,1.64-.07.04.45.08.87.15,1.63,1.21-2.07,2.71-2.36,4.55-1.29-.11.64-.35,1.2-.65,1.74-2.57-.52-3.41,0-3.66,2.61-.19,1.93-.09,3.9-.12,5.85,0,.43,0,.86,0,1.38Z"/>
  <path class="cls-2" d="M313.53,101.13h1.85v16.39c-.55.2-1.17.07-1.85.08v-16.47Z"/>
  <path class="cls-2" d="M346.27,117.57h-1.87v-11.83c.62-.18,1.21-.09,1.87-.06v11.89Z"/>
  <path class="cls-2" d="M217.98,117.57h-1.86v-11.86h1.86v11.86Z"/>
  <path class="cls-2" d="M344.38,101.12h1.85c.21.73.1,1.46.08,2.25h-1.86c-.23-.7-.12-1.43-.07-2.25Z"/>
  <path class="cls-2" d="M216.13,101.13h1.82c.18.74.12,1.47.04,2.25h-1.87v-2.25Z"/>
  <path class="cls-1" d="M339.36,111.55c-.01.84-.12,1.67-.45,2.45-.52,1.22-1.6,1.94-2.89,1.93-1.27,0-2.4-.74-2.85-1.99-.55-1.54-.6-3.12-.06-4.68.46-1.34,1.57-2.16,2.83-2.19,1.31-.03,2.47.79,3.01,2.14.3.75.4,1.53.4,2.33Z"/>
  <path class="cls-1" d="M57.58,110.43h-6.39c-.1-1.8,1.19-3.25,2.95-3.36,1.98-.13,3.33,1.14,3.44,3.36Z"/>
  <path class="cls-1" d="M199.79,110.4c.16-2.11,1.49-3.38,3.4-3.33,1.81.04,2.98,1.29,3.07,3.33h-6.47Z"/>
  <path class="cls-1" d="M357.53,110.42h-6.4c-.06-1.89,1.23-3.28,3.06-3.35,1.96-.08,3.28,1.23,3.33,3.35Z"/>
  <path class="cls-1" d="M19,110.4c.16-2.06,1.45-3.34,3.32-3.33,1.85,0,3.04,1.23,3.16,3.33h-6.48Z"/>
  <path class="cls-1" d="M258.74,110.43h-6.52c.12-2.01,1.35-3.3,3.16-3.36,1.9-.06,3.08,1.09,3.36,3.36Z"/>
  <path class="cls-1" d="M145.98,110.41h-6.53c.17-2.03,1.39-3.29,3.2-3.34,1.9-.05,3.07,1.1,3.33,3.34Z"/>
  <path class="cls-1" d="M162.56,110.41c.18-2.11,1.44-3.34,3.29-3.34,1.86,0,3.06,1.23,3.2,3.34h-6.49Z"/>
  <path class="cls-1" d="M301.93,111.54c.08-.51.12-1.02.23-1.53.42-1.9,1.75-3.01,3.5-2.93,1.65.07,2.96,1.31,3.25,3.11.18,1.11.18,2.23-.1,3.32-.45,1.71-1.7,2.69-3.34,2.68-1.63-.02-2.85-1.04-3.28-2.75-.15-.62-.25-1.25-.26-1.9Z"/>
  <path class="cls-1" d="M83.45,111.42c0,1.05-.12,1.87-.44,2.65-.56,1.38-1.69,2.13-3.14,2.12-1.43-.01-2.62-.8-3.11-2.18-.53-1.5-.55-3.05-.05-4.57.48-1.47,1.65-2.33,3.1-2.36,1.48-.03,2.74.85,3.27,2.32.26.72.38,1.46.36,2.02Z"/>
  <path class="cls-1" d="M327.01,111.47c-.05.83-.05,1.58-.3,2.31-.54,1.57-1.72,2.44-3.3,2.41-1.54-.03-2.76-.99-3.19-2.56-.36-1.29-.37-2.59-.02-3.89.43-1.63,1.68-2.64,3.25-2.66,1.53-.02,2.74.9,3.29,2.46.23.66.21,1.33.28,1.92Z"/>
</svg>